<svg width="20" height="20" viewBox="0 0 20 20" fill="none" xmlns="http://www.w3.org/2000/svg">
<path d="M16.4802 9.14596C16.0896 8.26689 15.5219 7.47789 14.8124 6.82831L14.2269 6.29114C14.2071 6.2734 14.1831 6.26082 14.1573 6.25448C14.1314 6.24815 14.1043 6.24827 14.0785 6.25482C14.0527 6.26138 14.0289 6.27417 14.0092 6.29208C13.9894 6.30999 13.9744 6.33246 13.9654 6.35753L13.7039 7.10795C13.5409 7.57873 13.2411 8.05956 12.8166 8.53234C12.7885 8.56252 12.7563 8.57057 12.7342 8.57258C12.712 8.57459 12.6778 8.57057 12.6476 8.5424C12.6195 8.51826 12.6054 8.48205 12.6074 8.44583C12.6818 7.2347 12.3197 5.86865 11.527 4.3819C10.8712 3.14662 9.95981 2.18294 8.8211 1.51099L7.99021 1.02211C7.88157 0.957727 7.74275 1.04222 7.74879 1.16897L7.79305 2.13466C7.82323 2.79455 7.74678 3.37798 7.56571 3.86284C7.34441 4.45633 7.02653 5.00758 6.62014 5.5025C6.33732 5.84645 6.01677 6.15755 5.66451 6.42996C4.81612 7.08213 4.12628 7.91779 3.64662 8.87436C3.16815 9.83927 2.91892 10.9016 2.91833 11.9786C2.91833 12.9282 3.10544 13.8477 3.47562 14.7148C3.83306 15.5496 4.34888 16.3073 4.99456 16.9459C5.6464 17.5897 6.40286 18.0967 7.24583 18.4488C8.11897 18.8149 9.04442 19 10 19C10.9557 19 11.8811 18.8149 12.7543 18.4508C13.5952 18.1008 14.3598 17.5903 15.0055 16.9479C15.6574 16.3041 16.1684 15.5517 16.5245 14.7168C16.8941 13.852 17.0837 12.9211 17.0818 11.9807C17.0818 10.9989 16.8806 10.0453 16.4802 9.14596ZM14.0439 15.9722C12.9635 17.0425 11.5291 17.6299 10 17.6299C8.47104 17.6299 7.03659 17.0425 5.95623 15.9722C4.87989 14.9039 4.28639 13.4875 4.28639 11.9807C4.28639 11.1055 4.48355 10.2666 4.87184 9.48596C5.25007 8.72347 5.81339 8.04145 6.49742 7.51636C6.93366 7.18278 7.32934 6.79926 7.67636 6.37363C8.17932 5.76001 8.57365 5.07598 8.84726 4.34166C8.95949 4.03875 9.04104 3.72534 9.09069 3.40615C9.57555 3.85278 9.98194 4.39196 10.3219 5.02368C10.9939 6.28309 11.3037 7.4037 11.2434 8.35731C11.229 8.58191 11.2656 8.80685 11.3507 9.01523C11.4357 9.22361 11.5668 9.41 11.7343 9.5604C11.8794 9.69146 12.049 9.79239 12.2335 9.85732C12.4179 9.92225 12.6134 9.94989 12.8086 9.93863C13.2049 9.91851 13.5691 9.74348 13.8346 9.44774C14.1022 9.14797 14.3336 8.84217 14.5267 8.53033C14.8084 8.89045 15.0438 9.28276 15.2309 9.70525C15.5507 10.4255 15.7137 11.192 15.7137 11.9807C15.7137 13.4875 15.1202 14.9059 14.0439 15.9722Z" fill="#0B76E0"/>
</svg>
